<mxfile host="app.diagrams.net" modified="2023-09-01T01:34:55.421Z" agent="Mozilla/5.0 (Windows NT 10.0; Win64; x64) AppleWebKit/537.36 (KHTML, like Gecko) Chrome/116.0.0.0 Safari/537.36 Edg/116.0.1938.62" etag="Khw6O20VNrk12ApInLK5" version="21.6.9" type="device">
  <diagram id="R2lEEEUBdFMjLlhIrx00" name="Page-1">
    <mxGraphModel dx="1173" dy="592" grid="1" gridSize="10" guides="1" tooltips="1" connect="1" arrows="1" fold="1" page="1" pageScale="1" pageWidth="850" pageHeight="1100" math="0" shadow="0" extFonts="Permanent Marker^https://fonts.googleapis.com/css?family=Permanent+Marker">
      <root>
        <mxCell id="0" />
        <mxCell id="1" parent="0" />
        <mxCell id="dCmI68aYTpl_BpPTmrTh-1" value="PERSONA" style="rounded=0;whiteSpace=wrap;html=1;" vertex="1" parent="1">
          <mxGeometry x="403" y="60" width="120" height="40" as="geometry" />
        </mxCell>
        <mxCell id="dCmI68aYTpl_BpPTmrTh-293" style="edgeStyle=orthogonalEdgeStyle;rounded=0;orthogonalLoop=1;jettySize=auto;html=1;entryX=1;entryY=0.5;entryDx=0;entryDy=0;endArrow=none;endFill=0;" edge="1" parent="1" source="dCmI68aYTpl_BpPTmrTh-2" target="dCmI68aYTpl_BpPTmrTh-291">
          <mxGeometry relative="1" as="geometry">
            <Array as="points">
              <mxPoint x="320" y="110" />
            </Array>
          </mxGeometry>
        </mxCell>
        <mxCell id="dCmI68aYTpl_BpPTmrTh-2" value="Vendedor" style="rounded=0;whiteSpace=wrap;html=1;" vertex="1" parent="1">
          <mxGeometry x="267.5" y="180" width="120" height="40" as="geometry" />
        </mxCell>
        <mxCell id="dCmI68aYTpl_BpPTmrTh-3" value="Clientes" style="rounded=0;whiteSpace=wrap;html=1;" vertex="1" parent="1">
          <mxGeometry x="543" y="180" width="120" height="40" as="geometry" />
        </mxCell>
        <mxCell id="dCmI68aYTpl_BpPTmrTh-41" value="" style="edgeStyle=orthogonalEdgeStyle;rounded=0;orthogonalLoop=1;jettySize=auto;html=1;endArrow=none;endFill=0;" edge="1" parent="1" source="dCmI68aYTpl_BpPTmrTh-4" target="dCmI68aYTpl_BpPTmrTh-38">
          <mxGeometry relative="1" as="geometry" />
        </mxCell>
        <mxCell id="dCmI68aYTpl_BpPTmrTh-4" value="Productos" style="rounded=0;whiteSpace=wrap;html=1;" vertex="1" parent="1">
          <mxGeometry x="488" y="380" width="120" height="40" as="geometry" />
        </mxCell>
        <mxCell id="dCmI68aYTpl_BpPTmrTh-7" value="" style="endArrow=none;html=1;rounded=0;" edge="1" parent="1" source="dCmI68aYTpl_BpPTmrTh-8">
          <mxGeometry width="50" height="50" relative="1" as="geometry">
            <mxPoint x="463" y="170" as="sourcePoint" />
            <mxPoint x="463" y="100" as="targetPoint" />
            <Array as="points" />
          </mxGeometry>
        </mxCell>
        <mxCell id="dCmI68aYTpl_BpPTmrTh-9" value="" style="endArrow=none;html=1;rounded=0;" edge="1" parent="1" target="dCmI68aYTpl_BpPTmrTh-8">
          <mxGeometry width="50" height="50" relative="1" as="geometry">
            <mxPoint x="463" y="140" as="sourcePoint" />
            <mxPoint x="463" y="100" as="targetPoint" />
            <Array as="points">
              <mxPoint x="463" y="140" />
            </Array>
          </mxGeometry>
        </mxCell>
        <mxCell id="dCmI68aYTpl_BpPTmrTh-8" value="" style="triangle;whiteSpace=wrap;html=1;rotation=90;" vertex="1" parent="1">
          <mxGeometry x="443" y="110" width="40" height="40" as="geometry" />
        </mxCell>
        <mxCell id="dCmI68aYTpl_BpPTmrTh-10" value="" style="curved=1;endArrow=none;html=1;rounded=0;endFill=0;exitX=0.5;exitY=0;exitDx=0;exitDy=0;" edge="1" parent="1" source="dCmI68aYTpl_BpPTmrTh-2" target="dCmI68aYTpl_BpPTmrTh-8">
          <mxGeometry width="50" height="50" relative="1" as="geometry">
            <mxPoint x="403" y="210" as="sourcePoint" />
            <mxPoint x="453" y="160" as="targetPoint" />
            <Array as="points">
              <mxPoint x="333" y="170" />
              <mxPoint x="383" y="140" />
            </Array>
          </mxGeometry>
        </mxCell>
        <mxCell id="dCmI68aYTpl_BpPTmrTh-15" value="" style="curved=1;endArrow=none;html=1;rounded=0;endFill=0;entryX=0.5;entryY=0;entryDx=0;entryDy=0;exitX=0.5;exitY=0;exitDx=0;exitDy=0;" edge="1" parent="1" source="dCmI68aYTpl_BpPTmrTh-8" target="dCmI68aYTpl_BpPTmrTh-3">
          <mxGeometry width="50" height="50" relative="1" as="geometry">
            <mxPoint x="473" y="150" as="sourcePoint" />
            <mxPoint x="574" y="80" as="targetPoint" />
            <Array as="points">
              <mxPoint x="593" y="140" />
            </Array>
          </mxGeometry>
        </mxCell>
        <mxCell id="dCmI68aYTpl_BpPTmrTh-16" value="Nombre" style="ellipse;whiteSpace=wrap;html=1;" vertex="1" parent="1">
          <mxGeometry x="583" y="40" width="65" height="30" as="geometry" />
        </mxCell>
        <mxCell id="dCmI68aYTpl_BpPTmrTh-18" value="Apellido" style="ellipse;whiteSpace=wrap;html=1;" vertex="1" parent="1">
          <mxGeometry x="583" y="80" width="65" height="30" as="geometry" />
        </mxCell>
        <mxCell id="dCmI68aYTpl_BpPTmrTh-19" value="" style="curved=1;endArrow=none;html=1;rounded=0;endFill=0;entryX=0;entryY=0.5;entryDx=0;entryDy=0;" edge="1" parent="1" target="dCmI68aYTpl_BpPTmrTh-18">
          <mxGeometry width="50" height="50" relative="1" as="geometry">
            <mxPoint x="523" y="90" as="sourcePoint" />
            <mxPoint x="633" y="160" as="targetPoint" />
            <Array as="points">
              <mxPoint x="563" y="90" />
            </Array>
          </mxGeometry>
        </mxCell>
        <mxCell id="dCmI68aYTpl_BpPTmrTh-20" value="" style="curved=1;endArrow=none;html=1;rounded=0;endFill=0;entryX=0;entryY=0.5;entryDx=0;entryDy=0;" edge="1" parent="1" target="dCmI68aYTpl_BpPTmrTh-16">
          <mxGeometry width="50" height="50" relative="1" as="geometry">
            <mxPoint x="523" y="65" as="sourcePoint" />
            <mxPoint x="583" y="70" as="targetPoint" />
            <Array as="points">
              <mxPoint x="563" y="65" />
            </Array>
          </mxGeometry>
        </mxCell>
        <mxCell id="dCmI68aYTpl_BpPTmrTh-22" value="Fecha_contrato" style="ellipse;whiteSpace=wrap;html=1;" vertex="1" parent="1">
          <mxGeometry x="110" y="160" width="85" height="30" as="geometry" />
        </mxCell>
        <mxCell id="dCmI68aYTpl_BpPTmrTh-23" value="cargo" style="ellipse;whiteSpace=wrap;html=1;" vertex="1" parent="1">
          <mxGeometry x="110" y="200" width="85" height="30" as="geometry" />
        </mxCell>
        <mxCell id="dCmI68aYTpl_BpPTmrTh-27" value="" style="endArrow=none;html=1;rounded=0;entryX=0;entryY=0.5;entryDx=0;entryDy=0;exitX=1;exitY=0.5;exitDx=0;exitDy=0;" edge="1" parent="1" source="dCmI68aYTpl_BpPTmrTh-23" target="dCmI68aYTpl_BpPTmrTh-2">
          <mxGeometry width="50" height="50" relative="1" as="geometry">
            <mxPoint x="238" y="235" as="sourcePoint" />
            <mxPoint x="288" y="185" as="targetPoint" />
          </mxGeometry>
        </mxCell>
        <mxCell id="dCmI68aYTpl_BpPTmrTh-28" value="" style="endArrow=none;html=1;rounded=0;entryX=0;entryY=0.25;entryDx=0;entryDy=0;exitX=1;exitY=0.5;exitDx=0;exitDy=0;" edge="1" parent="1" source="dCmI68aYTpl_BpPTmrTh-22" target="dCmI68aYTpl_BpPTmrTh-2">
          <mxGeometry width="50" height="50" relative="1" as="geometry">
            <mxPoint x="238" y="195" as="sourcePoint" />
            <mxPoint x="283" y="200" as="targetPoint" />
          </mxGeometry>
        </mxCell>
        <mxCell id="dCmI68aYTpl_BpPTmrTh-35" value="" style="edgeStyle=orthogonalEdgeStyle;rounded=0;orthogonalLoop=1;jettySize=auto;html=1;endArrow=none;endFill=0;" edge="1" parent="1" source="dCmI68aYTpl_BpPTmrTh-32" target="dCmI68aYTpl_BpPTmrTh-3">
          <mxGeometry relative="1" as="geometry" />
        </mxCell>
        <mxCell id="dCmI68aYTpl_BpPTmrTh-32" value="direccion" style="ellipse;whiteSpace=wrap;html=1;" vertex="1" parent="1">
          <mxGeometry x="723" y="155" width="85" height="30" as="geometry" />
        </mxCell>
        <mxCell id="dCmI68aYTpl_BpPTmrTh-36" style="edgeStyle=orthogonalEdgeStyle;rounded=0;orthogonalLoop=1;jettySize=auto;html=1;entryX=1;entryY=0.75;entryDx=0;entryDy=0;endArrow=none;endFill=0;" edge="1" parent="1" source="dCmI68aYTpl_BpPTmrTh-33" target="dCmI68aYTpl_BpPTmrTh-3">
          <mxGeometry relative="1" as="geometry" />
        </mxCell>
        <mxCell id="dCmI68aYTpl_BpPTmrTh-33" value="celular" style="ellipse;whiteSpace=wrap;html=1;" vertex="1" parent="1">
          <mxGeometry x="723" y="240" width="85" height="30" as="geometry" />
        </mxCell>
        <mxCell id="dCmI68aYTpl_BpPTmrTh-37" style="edgeStyle=orthogonalEdgeStyle;rounded=0;orthogonalLoop=1;jettySize=auto;html=1;entryX=0.918;entryY=-0.061;entryDx=0;entryDy=0;entryPerimeter=0;endArrow=none;endFill=0;" edge="1" parent="1">
          <mxGeometry relative="1" as="geometry">
            <mxPoint x="709.84" y="127.44" as="sourcePoint" />
            <mxPoint x="620" y="179.99999999999994" as="targetPoint" />
          </mxGeometry>
        </mxCell>
        <mxCell id="dCmI68aYTpl_BpPTmrTh-34" value="&lt;u&gt;email&lt;/u&gt;" style="ellipse;whiteSpace=wrap;html=1;" vertex="1" parent="1">
          <mxGeometry x="663" y="110" width="85" height="30" as="geometry" />
        </mxCell>
        <mxCell id="dCmI68aYTpl_BpPTmrTh-40" value="" style="edgeStyle=orthogonalEdgeStyle;rounded=0;orthogonalLoop=1;jettySize=auto;html=1;endArrow=none;endFill=0;" edge="1" parent="1" source="dCmI68aYTpl_BpPTmrTh-38" target="dCmI68aYTpl_BpPTmrTh-2">
          <mxGeometry relative="1" as="geometry" />
        </mxCell>
        <mxCell id="dCmI68aYTpl_BpPTmrTh-317" style="edgeStyle=orthogonalEdgeStyle;rounded=0;orthogonalLoop=1;jettySize=auto;html=1;entryX=0.5;entryY=1;entryDx=0;entryDy=0;endArrow=none;endFill=0;" edge="1" parent="1" source="dCmI68aYTpl_BpPTmrTh-38" target="dCmI68aYTpl_BpPTmrTh-3">
          <mxGeometry relative="1" as="geometry" />
        </mxCell>
        <mxCell id="dCmI68aYTpl_BpPTmrTh-38" value="Venta" style="rhombus;whiteSpace=wrap;html=1;" vertex="1" parent="1">
          <mxGeometry x="458" y="260" width="50" height="50" as="geometry" />
        </mxCell>
        <mxCell id="dCmI68aYTpl_BpPTmrTh-43" style="edgeStyle=orthogonalEdgeStyle;rounded=0;orthogonalLoop=1;jettySize=auto;html=1;endArrow=none;endFill=0;entryX=0;entryY=1;entryDx=0;entryDy=0;" edge="1" parent="1" source="dCmI68aYTpl_BpPTmrTh-42" target="dCmI68aYTpl_BpPTmrTh-38">
          <mxGeometry relative="1" as="geometry">
            <mxPoint x="465" y="310" as="targetPoint" />
            <Array as="points">
              <mxPoint x="410" y="350" />
              <mxPoint x="410" y="310" />
              <mxPoint x="465" y="310" />
              <mxPoint x="465" y="297" />
            </Array>
          </mxGeometry>
        </mxCell>
        <mxCell id="dCmI68aYTpl_BpPTmrTh-42" value="&lt;u&gt;No_factura&lt;/u&gt;" style="ellipse;whiteSpace=wrap;html=1;" vertex="1" parent="1">
          <mxGeometry x="302.5" y="335" width="85" height="30" as="geometry" />
        </mxCell>
        <mxCell id="dCmI68aYTpl_BpPTmrTh-47" value="" style="edgeStyle=orthogonalEdgeStyle;rounded=0;orthogonalLoop=1;jettySize=auto;html=1;endArrow=none;endFill=0;" edge="1" parent="1" source="dCmI68aYTpl_BpPTmrTh-44" target="dCmI68aYTpl_BpPTmrTh-4">
          <mxGeometry relative="1" as="geometry">
            <Array as="points">
              <mxPoint x="600" y="315" />
            </Array>
          </mxGeometry>
        </mxCell>
        <mxCell id="dCmI68aYTpl_BpPTmrTh-44" value="marca" style="ellipse;whiteSpace=wrap;html=1;" vertex="1" parent="1">
          <mxGeometry x="673" y="300" width="85" height="30" as="geometry" />
        </mxCell>
        <mxCell id="dCmI68aYTpl_BpPTmrTh-46" value="" style="edgeStyle=orthogonalEdgeStyle;rounded=0;orthogonalLoop=1;jettySize=auto;html=1;endArrow=none;endFill=0;" edge="1" parent="1" source="dCmI68aYTpl_BpPTmrTh-45" target="dCmI68aYTpl_BpPTmrTh-4">
          <mxGeometry relative="1" as="geometry">
            <Array as="points">
              <mxPoint x="726" y="400" />
            </Array>
          </mxGeometry>
        </mxCell>
        <mxCell id="dCmI68aYTpl_BpPTmrTh-45" value="&lt;u&gt;P_ID&lt;/u&gt;" style="ellipse;whiteSpace=wrap;html=1;" vertex="1" parent="1">
          <mxGeometry x="681" y="370" width="85" height="30" as="geometry" />
        </mxCell>
        <mxCell id="dCmI68aYTpl_BpPTmrTh-199" value="1" style="text;html=1;align=center;verticalAlign=middle;resizable=0;points=[];autosize=1;strokeColor=none;fillColor=none;" vertex="1" parent="1">
          <mxGeometry x="325" y="230" width="30" height="30" as="geometry" />
        </mxCell>
        <mxCell id="dCmI68aYTpl_BpPTmrTh-200" value="M" style="text;html=1;align=center;verticalAlign=middle;resizable=0;points=[];autosize=1;strokeColor=none;fillColor=none;" vertex="1" parent="1">
          <mxGeometry x="520" y="350" width="30" height="30" as="geometry" />
        </mxCell>
        <mxCell id="dCmI68aYTpl_BpPTmrTh-201" value="Sucursal" style="shape=table;startSize=30;container=1;collapsible=1;childLayout=tableLayout;fixedRows=1;rowLines=0;fontStyle=1;align=center;resizeLast=1;" vertex="1" parent="1">
          <mxGeometry x="10" y="910" width="250" height="90" as="geometry" />
        </mxCell>
        <mxCell id="dCmI68aYTpl_BpPTmrTh-202" value="" style="shape=partialRectangle;collapsible=0;dropTarget=0;pointerEvents=0;fillColor=none;points=[[0,0.5],[1,0.5]];portConstraint=eastwest;top=0;left=0;right=0;bottom=1;" vertex="1" parent="dCmI68aYTpl_BpPTmrTh-201">
          <mxGeometry y="30" width="250" height="30" as="geometry" />
        </mxCell>
        <mxCell id="dCmI68aYTpl_BpPTmrTh-203" value="PK" style="shape=partialRectangle;overflow=hidden;connectable=0;fillColor=none;top=0;left=0;bottom=0;right=0;fontStyle=1;fontSize=12;" vertex="1" parent="dCmI68aYTpl_BpPTmrTh-202">
          <mxGeometry width="50" height="30" as="geometry">
            <mxRectangle width="50" height="30" as="alternateBounds" />
          </mxGeometry>
        </mxCell>
        <mxCell id="dCmI68aYTpl_BpPTmrTh-204" value="ID_SUC " style="shape=partialRectangle;overflow=hidden;connectable=0;fillColor=none;top=0;left=0;bottom=0;right=0;align=center;spacingLeft=6;fontStyle=5;" vertex="1" parent="dCmI68aYTpl_BpPTmrTh-202">
          <mxGeometry x="50" width="200" height="30" as="geometry">
            <mxRectangle width="200" height="30" as="alternateBounds" />
          </mxGeometry>
        </mxCell>
        <mxCell id="dCmI68aYTpl_BpPTmrTh-205" value="" style="shape=partialRectangle;collapsible=0;dropTarget=0;pointerEvents=0;fillColor=none;points=[[0,0.5],[1,0.5]];portConstraint=eastwest;top=0;left=0;right=0;bottom=0;" vertex="1" parent="dCmI68aYTpl_BpPTmrTh-201">
          <mxGeometry y="60" width="250" height="30" as="geometry" />
        </mxCell>
        <mxCell id="dCmI68aYTpl_BpPTmrTh-206" value="" style="shape=partialRectangle;overflow=hidden;connectable=0;fillColor=none;top=0;left=0;bottom=0;right=0;" vertex="1" parent="dCmI68aYTpl_BpPTmrTh-205">
          <mxGeometry width="50" height="30" as="geometry">
            <mxRectangle width="50" height="30" as="alternateBounds" />
          </mxGeometry>
        </mxCell>
        <mxCell id="dCmI68aYTpl_BpPTmrTh-207" value="Obj_ventas" style="shape=partialRectangle;overflow=hidden;connectable=0;fillColor=none;top=0;left=0;bottom=0;right=0;align=center;spacingLeft=6;fontStyle=4" vertex="1" parent="dCmI68aYTpl_BpPTmrTh-205">
          <mxGeometry x="50" width="200" height="30" as="geometry">
            <mxRectangle width="200" height="30" as="alternateBounds" />
          </mxGeometry>
        </mxCell>
        <mxCell id="dCmI68aYTpl_BpPTmrTh-208" value="N" style="rounded=0;whiteSpace=wrap;html=1;" vertex="1" parent="1">
          <mxGeometry x="230" y="940" width="30" height="30" as="geometry" />
        </mxCell>
        <mxCell id="dCmI68aYTpl_BpPTmrTh-209" value="N" style="rounded=0;whiteSpace=wrap;html=1;" vertex="1" parent="1">
          <mxGeometry x="230" y="970" width="30" height="30" as="geometry" />
        </mxCell>
        <mxCell id="dCmI68aYTpl_BpPTmrTh-224" value="&lt;u&gt;Ventas_totales&lt;/u&gt;" style="rounded=0;whiteSpace=wrap;html=1;align=center;verticalAlign=middle;" vertex="1" parent="1">
          <mxGeometry x="40" y="1000" width="220" height="30" as="geometry" />
        </mxCell>
        <mxCell id="dCmI68aYTpl_BpPTmrTh-225" value="" style="rounded=0;whiteSpace=wrap;html=1;" vertex="1" parent="1">
          <mxGeometry x="10" y="1000" width="30" height="30" as="geometry" />
        </mxCell>
        <mxCell id="dCmI68aYTpl_BpPTmrTh-226" value="N" style="rounded=0;whiteSpace=wrap;html=1;" vertex="1" parent="1">
          <mxGeometry x="230" y="1000" width="30" height="30" as="geometry" />
        </mxCell>
        <mxCell id="dCmI68aYTpl_BpPTmrTh-264" value="Venta_producto" style="shape=table;startSize=30;container=1;collapsible=1;childLayout=tableLayout;fixedRows=1;rowLines=0;fontStyle=1;align=center;resizeLast=1;" vertex="1" parent="1">
          <mxGeometry x="300" y="790" width="250" height="90" as="geometry" />
        </mxCell>
        <mxCell id="dCmI68aYTpl_BpPTmrTh-265" value="" style="shape=partialRectangle;collapsible=0;dropTarget=0;pointerEvents=0;fillColor=none;points=[[0,0.5],[1,0.5]];portConstraint=eastwest;top=0;left=0;right=0;bottom=1;" vertex="1" parent="dCmI68aYTpl_BpPTmrTh-264">
          <mxGeometry y="30" width="250" height="30" as="geometry" />
        </mxCell>
        <mxCell id="dCmI68aYTpl_BpPTmrTh-266" value="fk pk" style="shape=partialRectangle;overflow=hidden;connectable=0;fillColor=none;top=0;left=0;bottom=0;right=0;fontStyle=1;" vertex="1" parent="dCmI68aYTpl_BpPTmrTh-265">
          <mxGeometry width="80" height="30" as="geometry">
            <mxRectangle width="80" height="30" as="alternateBounds" />
          </mxGeometry>
        </mxCell>
        <mxCell id="dCmI68aYTpl_BpPTmrTh-267" value="P_ID" style="shape=partialRectangle;overflow=hidden;connectable=0;fillColor=none;top=0;left=0;bottom=0;right=0;align=center;spacingLeft=6;fontStyle=5;" vertex="1" parent="dCmI68aYTpl_BpPTmrTh-265">
          <mxGeometry x="80" width="170" height="30" as="geometry">
            <mxRectangle width="170" height="30" as="alternateBounds" />
          </mxGeometry>
        </mxCell>
        <mxCell id="dCmI68aYTpl_BpPTmrTh-268" value="" style="shape=partialRectangle;collapsible=0;dropTarget=0;pointerEvents=0;fillColor=none;points=[[0,0.5],[1,0.5]];portConstraint=eastwest;top=0;left=0;right=0;bottom=0;" vertex="1" parent="dCmI68aYTpl_BpPTmrTh-264">
          <mxGeometry y="60" width="250" height="30" as="geometry" />
        </mxCell>
        <mxCell id="dCmI68aYTpl_BpPTmrTh-269" value="fk pk" style="shape=partialRectangle;overflow=hidden;connectable=0;fillColor=none;top=0;left=0;bottom=0;right=0;" vertex="1" parent="dCmI68aYTpl_BpPTmrTh-268">
          <mxGeometry width="80" height="30" as="geometry">
            <mxRectangle width="80" height="30" as="alternateBounds" />
          </mxGeometry>
        </mxCell>
        <mxCell id="dCmI68aYTpl_BpPTmrTh-270" value="No_factura" style="shape=partialRectangle;overflow=hidden;connectable=0;fillColor=none;top=0;left=0;bottom=0;right=0;align=center;spacingLeft=6;fontStyle=4" vertex="1" parent="dCmI68aYTpl_BpPTmrTh-268">
          <mxGeometry x="80" width="170" height="30" as="geometry">
            <mxRectangle width="170" height="30" as="alternateBounds" />
          </mxGeometry>
        </mxCell>
        <mxCell id="dCmI68aYTpl_BpPTmrTh-273" value="N" style="rounded=0;whiteSpace=wrap;html=1;" vertex="1" parent="1">
          <mxGeometry x="520" y="820" width="30" height="30" as="geometry" />
        </mxCell>
        <mxCell id="dCmI68aYTpl_BpPTmrTh-274" value="N" style="rounded=0;whiteSpace=wrap;html=1;" vertex="1" parent="1">
          <mxGeometry x="520" y="850" width="30" height="30" as="geometry" />
        </mxCell>
        <mxCell id="dCmI68aYTpl_BpPTmrTh-282" value="&lt;u&gt;CIP&lt;/u&gt;" style="ellipse;whiteSpace=wrap;html=1;" vertex="1" parent="1">
          <mxGeometry x="295" y="60" width="65" height="30" as="geometry" />
        </mxCell>
        <mxCell id="dCmI68aYTpl_BpPTmrTh-283" value="" style="curved=1;endArrow=none;html=1;rounded=0;endFill=0;exitX=1;exitY=0.5;exitDx=0;exitDy=0;" edge="1" parent="1" target="dCmI68aYTpl_BpPTmrTh-1" source="dCmI68aYTpl_BpPTmrTh-282">
          <mxGeometry width="50" height="50" relative="1" as="geometry">
            <mxPoint x="353" y="75" as="sourcePoint" />
            <mxPoint x="400" y="80" as="targetPoint" />
            <Array as="points">
              <mxPoint x="393" y="75" />
            </Array>
          </mxGeometry>
        </mxCell>
        <mxCell id="dCmI68aYTpl_BpPTmrTh-287" value="" style="edgeStyle=orthogonalEdgeStyle;rounded=0;orthogonalLoop=1;jettySize=auto;html=1;endArrow=none;endFill=0;" edge="1" parent="1" source="dCmI68aYTpl_BpPTmrTh-286" target="dCmI68aYTpl_BpPTmrTh-2">
          <mxGeometry relative="1" as="geometry">
            <Array as="points">
              <mxPoint x="290" y="310" />
            </Array>
          </mxGeometry>
        </mxCell>
        <mxCell id="dCmI68aYTpl_BpPTmrTh-288" value="" style="edgeStyle=orthogonalEdgeStyle;rounded=0;orthogonalLoop=1;jettySize=auto;html=1;endArrow=none;endFill=0;entryX=1;entryY=0.5;entryDx=0;entryDy=0;" edge="1" parent="1" source="dCmI68aYTpl_BpPTmrTh-286" target="dCmI68aYTpl_BpPTmrTh-309">
          <mxGeometry relative="1" as="geometry">
            <mxPoint x="500" y="300" as="targetPoint" />
          </mxGeometry>
        </mxCell>
        <mxCell id="dCmI68aYTpl_BpPTmrTh-286" value="Dirige" style="rhombus;whiteSpace=wrap;html=1;" vertex="1" parent="1">
          <mxGeometry x="190" y="290" width="48" height="40" as="geometry" />
        </mxCell>
        <mxCell id="dCmI68aYTpl_BpPTmrTh-289" value="1" style="text;html=1;align=center;verticalAlign=middle;resizable=0;points=[];autosize=1;strokeColor=none;fillColor=none;" vertex="1" parent="1">
          <mxGeometry x="253" y="270" width="30" height="30" as="geometry" />
        </mxCell>
        <mxCell id="dCmI68aYTpl_BpPTmrTh-290" value="1" style="text;html=1;align=center;verticalAlign=middle;resizable=0;points=[];autosize=1;strokeColor=none;fillColor=none;" vertex="1" parent="1">
          <mxGeometry x="120" y="320" width="30" height="30" as="geometry" />
        </mxCell>
        <mxCell id="dCmI68aYTpl_BpPTmrTh-292" style="edgeStyle=orthogonalEdgeStyle;rounded=0;orthogonalLoop=1;jettySize=auto;html=1;endArrow=none;endFill=0;entryX=0.082;entryY=0.056;entryDx=0;entryDy=0;entryPerimeter=0;" edge="1" parent="1" target="dCmI68aYTpl_BpPTmrTh-2">
          <mxGeometry relative="1" as="geometry">
            <mxPoint x="278.99" y="148" as="targetPoint" />
            <mxPoint x="251.99" y="128" as="sourcePoint" />
            <Array as="points">
              <mxPoint x="252" y="148" />
              <mxPoint x="277" y="148" />
            </Array>
          </mxGeometry>
        </mxCell>
        <mxCell id="dCmI68aYTpl_BpPTmrTh-291" value="Responde" style="rhombus;whiteSpace=wrap;html=1;" vertex="1" parent="1">
          <mxGeometry x="223" y="80" width="60" height="60" as="geometry" />
        </mxCell>
        <mxCell id="dCmI68aYTpl_BpPTmrTh-294" value="1" style="text;html=1;align=center;verticalAlign=middle;resizable=0;points=[];autosize=1;strokeColor=none;fillColor=none;" vertex="1" parent="1">
          <mxGeometry x="295" y="150" width="30" height="30" as="geometry" />
        </mxCell>
        <mxCell id="dCmI68aYTpl_BpPTmrTh-295" value="M" style="text;html=1;align=center;verticalAlign=middle;resizable=0;points=[];autosize=1;strokeColor=none;fillColor=none;" vertex="1" parent="1">
          <mxGeometry x="250.5" y="150" width="30" height="30" as="geometry" />
        </mxCell>
        <mxCell id="dCmI68aYTpl_BpPTmrTh-297" style="edgeStyle=orthogonalEdgeStyle;rounded=0;orthogonalLoop=1;jettySize=auto;html=1;endArrow=none;endFill=0;" edge="1" parent="1" source="dCmI68aYTpl_BpPTmrTh-296" target="dCmI68aYTpl_BpPTmrTh-2">
          <mxGeometry relative="1" as="geometry">
            <Array as="points">
              <mxPoint x="280" y="255" />
            </Array>
          </mxGeometry>
        </mxCell>
        <mxCell id="dCmI68aYTpl_BpPTmrTh-296" value="edad" style="ellipse;whiteSpace=wrap;html=1;" vertex="1" parent="1">
          <mxGeometry x="110" y="240" width="85" height="30" as="geometry" />
        </mxCell>
        <mxCell id="dCmI68aYTpl_BpPTmrTh-300" value="" style="ellipse;whiteSpace=wrap;html=1;fillColor=none;" vertex="1" parent="1">
          <mxGeometry x="716.5" y="235" width="98" height="40" as="geometry" />
        </mxCell>
        <mxCell id="dCmI68aYTpl_BpPTmrTh-308" style="edgeStyle=orthogonalEdgeStyle;rounded=0;orthogonalLoop=1;jettySize=auto;html=1;entryX=0.35;entryY=0.023;entryDx=0;entryDy=0;entryPerimeter=0;endArrow=none;endFill=0;" edge="1" parent="1" source="dCmI68aYTpl_BpPTmrTh-301" target="dCmI68aYTpl_BpPTmrTh-32">
          <mxGeometry relative="1" as="geometry">
            <Array as="points">
              <mxPoint x="715" y="100" />
              <mxPoint x="750" y="100" />
              <mxPoint x="750" y="152" />
              <mxPoint x="753" y="152" />
            </Array>
          </mxGeometry>
        </mxCell>
        <mxCell id="dCmI68aYTpl_BpPTmrTh-301" value="Calle" style="ellipse;whiteSpace=wrap;html=1;" vertex="1" parent="1">
          <mxGeometry x="690" y="30" width="50" height="30" as="geometry" />
        </mxCell>
        <mxCell id="dCmI68aYTpl_BpPTmrTh-305" value="" style="edgeStyle=orthogonalEdgeStyle;rounded=0;orthogonalLoop=1;jettySize=auto;html=1;endArrow=none;endFill=0;" edge="1" parent="1" source="dCmI68aYTpl_BpPTmrTh-302" target="dCmI68aYTpl_BpPTmrTh-32">
          <mxGeometry relative="1" as="geometry">
            <mxPoint x="760" y="150" as="targetPoint" />
            <Array as="points">
              <mxPoint x="783" y="108" />
              <mxPoint x="760" y="108" />
            </Array>
          </mxGeometry>
        </mxCell>
        <mxCell id="dCmI68aYTpl_BpPTmrTh-302" value="ciudad" style="ellipse;whiteSpace=wrap;html=1;" vertex="1" parent="1">
          <mxGeometry x="758" y="30" width="50" height="30" as="geometry" />
        </mxCell>
        <mxCell id="dCmI68aYTpl_BpPTmrTh-304" value="" style="edgeStyle=orthogonalEdgeStyle;rounded=0;orthogonalLoop=1;jettySize=auto;html=1;endArrow=none;endFill=0;" edge="1" parent="1" source="dCmI68aYTpl_BpPTmrTh-303" target="dCmI68aYTpl_BpPTmrTh-32">
          <mxGeometry relative="1" as="geometry" />
        </mxCell>
        <mxCell id="dCmI68aYTpl_BpPTmrTh-303" value="pais" style="ellipse;whiteSpace=wrap;html=1;" vertex="1" parent="1">
          <mxGeometry x="800" y="80" width="50" height="30" as="geometry" />
        </mxCell>
        <mxCell id="dCmI68aYTpl_BpPTmrTh-309" value="Sucursal" style="rounded=0;whiteSpace=wrap;html=1;" vertex="1" parent="1">
          <mxGeometry x="40" y="330" width="80" height="40" as="geometry" />
        </mxCell>
        <mxCell id="dCmI68aYTpl_BpPTmrTh-313" style="edgeStyle=orthogonalEdgeStyle;rounded=0;orthogonalLoop=1;jettySize=auto;html=1;entryX=0.25;entryY=1;entryDx=0;entryDy=0;endArrow=none;endFill=0;" edge="1" parent="1" source="dCmI68aYTpl_BpPTmrTh-310" target="dCmI68aYTpl_BpPTmrTh-309">
          <mxGeometry relative="1" as="geometry" />
        </mxCell>
        <mxCell id="dCmI68aYTpl_BpPTmrTh-310" value="Obj_ventas" style="ellipse;whiteSpace=wrap;html=1;" vertex="1" parent="1">
          <mxGeometry y="410" width="85" height="30" as="geometry" />
        </mxCell>
        <mxCell id="dCmI68aYTpl_BpPTmrTh-312" style="edgeStyle=orthogonalEdgeStyle;rounded=0;orthogonalLoop=1;jettySize=auto;html=1;entryX=0.75;entryY=1;entryDx=0;entryDy=0;endArrow=none;endFill=0;" edge="1" parent="1" source="dCmI68aYTpl_BpPTmrTh-311" target="dCmI68aYTpl_BpPTmrTh-309">
          <mxGeometry relative="1" as="geometry" />
        </mxCell>
        <mxCell id="dCmI68aYTpl_BpPTmrTh-311" value="ventas_totales" style="ellipse;whiteSpace=wrap;html=1;" vertex="1" parent="1">
          <mxGeometry x="85" y="420" width="85" height="30" as="geometry" />
        </mxCell>
        <mxCell id="dCmI68aYTpl_BpPTmrTh-318" value="n" style="text;html=1;align=center;verticalAlign=middle;resizable=0;points=[];autosize=1;strokeColor=none;fillColor=none;" vertex="1" parent="1">
          <mxGeometry x="580" y="220" width="30" height="30" as="geometry" />
        </mxCell>
        <mxCell id="dCmI68aYTpl_BpPTmrTh-319" value="" style="edgeStyle=orthogonalEdgeStyle;rounded=0;orthogonalLoop=1;jettySize=auto;html=1;endArrow=none;endFill=0;" edge="1" parent="1" source="dCmI68aYTpl_BpPTmrTh-320">
          <mxGeometry relative="1" as="geometry">
            <mxPoint x="608" y="415" as="targetPoint" />
            <Array as="points">
              <mxPoint x="608" y="350" />
            </Array>
          </mxGeometry>
        </mxCell>
        <mxCell id="dCmI68aYTpl_BpPTmrTh-320" value="modelo" style="ellipse;whiteSpace=wrap;html=1;" vertex="1" parent="1">
          <mxGeometry x="681" y="335" width="85" height="30" as="geometry" />
        </mxCell>
        <mxCell id="dCmI68aYTpl_BpPTmrTh-321" value="" style="edgeStyle=orthogonalEdgeStyle;rounded=0;orthogonalLoop=1;jettySize=auto;html=1;endArrow=none;endFill=0;" edge="1" parent="1" source="dCmI68aYTpl_BpPTmrTh-322">
          <mxGeometry relative="1" as="geometry">
            <mxPoint x="610" y="410" as="targetPoint" />
            <Array as="points">
              <mxPoint x="728" y="440" />
            </Array>
          </mxGeometry>
        </mxCell>
        <mxCell id="dCmI68aYTpl_BpPTmrTh-322" value="IMAGEN" style="ellipse;whiteSpace=wrap;html=1;" vertex="1" parent="1">
          <mxGeometry x="683" y="410" width="85" height="30" as="geometry" />
        </mxCell>
        <mxCell id="dCmI68aYTpl_BpPTmrTh-323" value="" style="edgeStyle=orthogonalEdgeStyle;rounded=0;orthogonalLoop=1;jettySize=auto;html=1;endArrow=none;endFill=0;entryX=0.937;entryY=0.964;entryDx=0;entryDy=0;entryPerimeter=0;" edge="1" parent="1" source="dCmI68aYTpl_BpPTmrTh-324" target="dCmI68aYTpl_BpPTmrTh-4">
          <mxGeometry relative="1" as="geometry">
            <mxPoint x="600" y="450" as="targetPoint" />
            <Array as="points">
              <mxPoint x="670" y="475" />
              <mxPoint x="670" y="450" />
              <mxPoint x="600" y="450" />
            </Array>
          </mxGeometry>
        </mxCell>
        <mxCell id="dCmI68aYTpl_BpPTmrTh-324" value="precio" style="ellipse;whiteSpace=wrap;html=1;" vertex="1" parent="1">
          <mxGeometry x="673" y="460" width="85" height="30" as="geometry" />
        </mxCell>
        <mxCell id="dCmI68aYTpl_BpPTmrTh-326" style="edgeStyle=orthogonalEdgeStyle;rounded=0;orthogonalLoop=1;jettySize=auto;html=1;entryX=0.47;entryY=1.007;entryDx=0;entryDy=0;entryPerimeter=0;endArrow=none;endFill=0;" edge="1" parent="1" source="dCmI68aYTpl_BpPTmrTh-325" target="dCmI68aYTpl_BpPTmrTh-4">
          <mxGeometry relative="1" as="geometry" />
        </mxCell>
        <mxCell id="dCmI68aYTpl_BpPTmrTh-325" value="Ficha_Tec" style="ellipse;whiteSpace=wrap;html=1;" vertex="1" parent="1">
          <mxGeometry x="498" y="460" width="85" height="30" as="geometry" />
        </mxCell>
        <mxCell id="dCmI68aYTpl_BpPTmrTh-331" style="edgeStyle=orthogonalEdgeStyle;rounded=0;orthogonalLoop=1;jettySize=auto;html=1;entryX=0;entryY=0.5;entryDx=0;entryDy=0;endArrow=none;endFill=0;" edge="1" parent="1" source="dCmI68aYTpl_BpPTmrTh-330" target="dCmI68aYTpl_BpPTmrTh-4">
          <mxGeometry relative="1" as="geometry" />
        </mxCell>
        <mxCell id="dCmI68aYTpl_BpPTmrTh-330" value="descripcion" style="ellipse;whiteSpace=wrap;html=1;" vertex="1" parent="1">
          <mxGeometry x="405" y="440" width="85" height="30" as="geometry" />
        </mxCell>
        <mxCell id="dCmI68aYTpl_BpPTmrTh-346" value="" style="group" vertex="1" connectable="0" parent="1">
          <mxGeometry x="267.5" y="490" width="228" height="210" as="geometry" />
        </mxCell>
        <mxCell id="dCmI68aYTpl_BpPTmrTh-157" value="Clientes" style="shape=table;startSize=30;container=1;collapsible=1;childLayout=tableLayout;fixedRows=1;rowLines=0;fontStyle=1;align=center;resizeLast=1;" vertex="1" parent="dCmI68aYTpl_BpPTmrTh-346">
          <mxGeometry width="227.5449101796407" height="135" as="geometry" />
        </mxCell>
        <mxCell id="dCmI68aYTpl_BpPTmrTh-158" value="" style="shape=partialRectangle;collapsible=0;dropTarget=0;pointerEvents=0;fillColor=none;points=[[0,0.5],[1,0.5]];portConstraint=eastwest;top=0;left=0;right=0;bottom=1;" vertex="1" parent="dCmI68aYTpl_BpPTmrTh-157">
          <mxGeometry y="30" width="227.5449101796407" height="30" as="geometry" />
        </mxCell>
        <mxCell id="dCmI68aYTpl_BpPTmrTh-159" value="PK" style="shape=partialRectangle;overflow=hidden;connectable=0;fillColor=none;top=0;left=0;bottom=0;right=0;fontStyle=1;" vertex="1" parent="dCmI68aYTpl_BpPTmrTh-158">
          <mxGeometry width="30" height="30" as="geometry">
            <mxRectangle width="30" height="30" as="alternateBounds" />
          </mxGeometry>
        </mxCell>
        <mxCell id="dCmI68aYTpl_BpPTmrTh-160" value="CIP  " style="shape=partialRectangle;overflow=hidden;connectable=0;fillColor=none;top=0;left=0;bottom=0;right=0;align=center;spacingLeft=6;fontStyle=5;" vertex="1" parent="dCmI68aYTpl_BpPTmrTh-158">
          <mxGeometry x="30" width="197.5449101796407" height="30" as="geometry">
            <mxRectangle width="197.5449101796407" height="30" as="alternateBounds" />
          </mxGeometry>
        </mxCell>
        <mxCell id="dCmI68aYTpl_BpPTmrTh-161" value="" style="shape=partialRectangle;collapsible=0;dropTarget=0;pointerEvents=0;fillColor=none;points=[[0,0.5],[1,0.5]];portConstraint=eastwest;top=0;left=0;right=0;bottom=0;" vertex="1" parent="dCmI68aYTpl_BpPTmrTh-157">
          <mxGeometry y="60" width="227.5449101796407" height="30" as="geometry" />
        </mxCell>
        <mxCell id="dCmI68aYTpl_BpPTmrTh-162" value="" style="shape=partialRectangle;overflow=hidden;connectable=0;fillColor=none;top=0;left=0;bottom=0;right=0;" vertex="1" parent="dCmI68aYTpl_BpPTmrTh-161">
          <mxGeometry width="30" height="30" as="geometry">
            <mxRectangle width="30" height="30" as="alternateBounds" />
          </mxGeometry>
        </mxCell>
        <mxCell id="dCmI68aYTpl_BpPTmrTh-163" value="nombre" style="shape=partialRectangle;overflow=hidden;connectable=0;fillColor=none;top=0;left=0;bottom=0;right=0;align=center;spacingLeft=6;" vertex="1" parent="dCmI68aYTpl_BpPTmrTh-161">
          <mxGeometry x="30" width="197.5449101796407" height="30" as="geometry">
            <mxRectangle width="197.5449101796407" height="30" as="alternateBounds" />
          </mxGeometry>
        </mxCell>
        <mxCell id="dCmI68aYTpl_BpPTmrTh-164" value="apellido" style="rounded=0;whiteSpace=wrap;html=1;align=center;verticalAlign=middle;" vertex="1" parent="dCmI68aYTpl_BpPTmrTh-346">
          <mxGeometry x="27.305389221556883" y="90" width="200.23952095808383" height="30.000000000000004" as="geometry" />
        </mxCell>
        <mxCell id="dCmI68aYTpl_BpPTmrTh-165" value="" style="rounded=0;whiteSpace=wrap;html=1;" vertex="1" parent="dCmI68aYTpl_BpPTmrTh-346">
          <mxGeometry y="90" width="27.305389221556883" height="30.000000000000004" as="geometry" />
        </mxCell>
        <mxCell id="dCmI68aYTpl_BpPTmrTh-166" value="N" style="rounded=0;whiteSpace=wrap;html=1;" vertex="1" parent="dCmI68aYTpl_BpPTmrTh-346">
          <mxGeometry x="200.23952095808383" y="30.000000000000004" width="27.305389221556883" height="30.000000000000004" as="geometry" />
        </mxCell>
        <mxCell id="dCmI68aYTpl_BpPTmrTh-167" value="N" style="rounded=0;whiteSpace=wrap;html=1;" vertex="1" parent="dCmI68aYTpl_BpPTmrTh-346">
          <mxGeometry x="200.23952095808383" y="60.00000000000001" width="27.305389221556883" height="30.000000000000004" as="geometry" />
        </mxCell>
        <mxCell id="dCmI68aYTpl_BpPTmrTh-168" value="N" style="rounded=0;whiteSpace=wrap;html=1;" vertex="1" parent="dCmI68aYTpl_BpPTmrTh-346">
          <mxGeometry x="200.23952095808383" y="90" width="27.305389221556883" height="30.000000000000004" as="geometry" />
        </mxCell>
        <mxCell id="dCmI68aYTpl_BpPTmrTh-169" value="calle" style="rounded=0;whiteSpace=wrap;html=1;align=center;verticalAlign=middle;" vertex="1" parent="dCmI68aYTpl_BpPTmrTh-346">
          <mxGeometry x="27.305389221556883" y="120.00000000000001" width="200.23952095808383" height="30.000000000000004" as="geometry" />
        </mxCell>
        <mxCell id="dCmI68aYTpl_BpPTmrTh-170" value="" style="rounded=0;whiteSpace=wrap;html=1;" vertex="1" parent="dCmI68aYTpl_BpPTmrTh-346">
          <mxGeometry y="120.00000000000001" width="27.305389221556883" height="30.000000000000004" as="geometry" />
        </mxCell>
        <mxCell id="dCmI68aYTpl_BpPTmrTh-171" value="N" style="rounded=0;whiteSpace=wrap;html=1;" vertex="1" parent="dCmI68aYTpl_BpPTmrTh-346">
          <mxGeometry x="200.23952095808383" y="120.00000000000001" width="27.305389221556883" height="30.000000000000004" as="geometry" />
        </mxCell>
        <mxCell id="dCmI68aYTpl_BpPTmrTh-172" value="ciudad" style="rounded=0;whiteSpace=wrap;html=1;align=center;verticalAlign=middle;" vertex="1" parent="dCmI68aYTpl_BpPTmrTh-346">
          <mxGeometry x="27.305389221556883" y="150" width="200.23952095808383" height="30.000000000000004" as="geometry" />
        </mxCell>
        <mxCell id="dCmI68aYTpl_BpPTmrTh-173" value="" style="rounded=0;whiteSpace=wrap;html=1;" vertex="1" parent="dCmI68aYTpl_BpPTmrTh-346">
          <mxGeometry y="150" width="27.305389221556883" height="30.000000000000004" as="geometry" />
        </mxCell>
        <mxCell id="dCmI68aYTpl_BpPTmrTh-174" value="N" style="rounded=0;whiteSpace=wrap;html=1;" vertex="1" parent="dCmI68aYTpl_BpPTmrTh-346">
          <mxGeometry x="200.23952095808383" y="150" width="27.305389221556883" height="30.000000000000004" as="geometry" />
        </mxCell>
        <mxCell id="dCmI68aYTpl_BpPTmrTh-343" value="Pais" style="rounded=0;whiteSpace=wrap;html=1;align=center;verticalAlign=middle;" vertex="1" parent="dCmI68aYTpl_BpPTmrTh-346">
          <mxGeometry x="27.760479041916163" y="180" width="200.23952095808383" height="30.000000000000004" as="geometry" />
        </mxCell>
        <mxCell id="dCmI68aYTpl_BpPTmrTh-344" value="" style="rounded=0;whiteSpace=wrap;html=1;" vertex="1" parent="dCmI68aYTpl_BpPTmrTh-346">
          <mxGeometry x="0.4550898203592814" y="180" width="27.305389221556883" height="30.000000000000004" as="geometry" />
        </mxCell>
        <mxCell id="dCmI68aYTpl_BpPTmrTh-345" value="N" style="rounded=0;whiteSpace=wrap;html=1;" vertex="1" parent="dCmI68aYTpl_BpPTmrTh-346">
          <mxGeometry x="200.6946107784431" y="180" width="27.305389221556883" height="30.000000000000004" as="geometry" />
        </mxCell>
        <mxCell id="dCmI68aYTpl_BpPTmrTh-347" value="" style="group" vertex="1" connectable="0" parent="1">
          <mxGeometry x="20" y="490" width="215" height="200" as="geometry" />
        </mxCell>
        <mxCell id="dCmI68aYTpl_BpPTmrTh-70" value="Vendedor" style="shape=table;startSize=30;container=1;collapsible=1;childLayout=tableLayout;fixedRows=1;rowLines=0;fontStyle=1;align=center;resizeLast=1;" vertex="1" parent="dCmI68aYTpl_BpPTmrTh-347">
          <mxGeometry width="215" height="90" as="geometry" />
        </mxCell>
        <mxCell id="dCmI68aYTpl_BpPTmrTh-71" value="" style="shape=partialRectangle;collapsible=0;dropTarget=0;pointerEvents=0;fillColor=none;points=[[0,0.5],[1,0.5]];portConstraint=eastwest;top=0;left=0;right=0;bottom=1;" vertex="1" parent="dCmI68aYTpl_BpPTmrTh-70">
          <mxGeometry y="30" width="215" height="30" as="geometry" />
        </mxCell>
        <mxCell id="dCmI68aYTpl_BpPTmrTh-72" value="PK" style="shape=partialRectangle;overflow=hidden;connectable=0;fillColor=none;top=0;left=0;bottom=0;right=0;fontStyle=1;" vertex="1" parent="dCmI68aYTpl_BpPTmrTh-71">
          <mxGeometry width="30" height="30" as="geometry">
            <mxRectangle width="30" height="30" as="alternateBounds" />
          </mxGeometry>
        </mxCell>
        <mxCell id="dCmI68aYTpl_BpPTmrTh-73" value="V_CIP" style="shape=partialRectangle;overflow=hidden;connectable=0;fillColor=none;top=0;left=0;bottom=0;right=0;align=center;spacingLeft=6;fontStyle=5;" vertex="1" parent="dCmI68aYTpl_BpPTmrTh-71">
          <mxGeometry x="30" width="185" height="30" as="geometry">
            <mxRectangle width="185" height="30" as="alternateBounds" />
          </mxGeometry>
        </mxCell>
        <mxCell id="dCmI68aYTpl_BpPTmrTh-74" value="" style="shape=partialRectangle;collapsible=0;dropTarget=0;pointerEvents=0;fillColor=none;points=[[0,0.5],[1,0.5]];portConstraint=eastwest;top=0;left=0;right=0;bottom=0;" vertex="1" parent="dCmI68aYTpl_BpPTmrTh-70">
          <mxGeometry y="60" width="215" height="30" as="geometry" />
        </mxCell>
        <mxCell id="dCmI68aYTpl_BpPTmrTh-75" value="" style="shape=partialRectangle;overflow=hidden;connectable=0;fillColor=none;top=0;left=0;bottom=0;right=0;" vertex="1" parent="dCmI68aYTpl_BpPTmrTh-74">
          <mxGeometry width="30" height="30" as="geometry">
            <mxRectangle width="30" height="30" as="alternateBounds" />
          </mxGeometry>
        </mxCell>
        <mxCell id="dCmI68aYTpl_BpPTmrTh-76" value="fecha_contrato" style="shape=partialRectangle;overflow=hidden;connectable=0;fillColor=none;top=0;left=0;bottom=0;right=0;align=center;spacingLeft=6;" vertex="1" parent="dCmI68aYTpl_BpPTmrTh-74">
          <mxGeometry x="30" width="185" height="30" as="geometry">
            <mxRectangle width="185" height="30" as="alternateBounds" />
          </mxGeometry>
        </mxCell>
        <mxCell id="dCmI68aYTpl_BpPTmrTh-82" value="cargo" style="rounded=0;whiteSpace=wrap;html=1;align=center;verticalAlign=middle;" vertex="1" parent="dCmI68aYTpl_BpPTmrTh-347">
          <mxGeometry x="25.799999999999997" y="85.71428571428572" width="189.2" height="28.571428571428573" as="geometry" />
        </mxCell>
        <mxCell id="dCmI68aYTpl_BpPTmrTh-83" value="" style="rounded=0;whiteSpace=wrap;html=1;" vertex="1" parent="dCmI68aYTpl_BpPTmrTh-347">
          <mxGeometry y="85.71428571428572" width="25.799999999999997" height="28.571428571428573" as="geometry" />
        </mxCell>
        <mxCell id="dCmI68aYTpl_BpPTmrTh-84" value="N" style="rounded=0;whiteSpace=wrap;html=1;" vertex="1" parent="dCmI68aYTpl_BpPTmrTh-347">
          <mxGeometry x="189.2" y="28.571428571428573" width="25.799999999999997" height="28.571428571428573" as="geometry" />
        </mxCell>
        <mxCell id="dCmI68aYTpl_BpPTmrTh-85" value="N" style="rounded=0;whiteSpace=wrap;html=1;" vertex="1" parent="dCmI68aYTpl_BpPTmrTh-347">
          <mxGeometry x="189.2" y="57.142857142857146" width="25.799999999999997" height="28.571428571428573" as="geometry" />
        </mxCell>
        <mxCell id="dCmI68aYTpl_BpPTmrTh-86" value="N" style="rounded=0;whiteSpace=wrap;html=1;" vertex="1" parent="dCmI68aYTpl_BpPTmrTh-347">
          <mxGeometry x="189.2" y="85.71428571428572" width="25.799999999999997" height="28.571428571428573" as="geometry" />
        </mxCell>
        <mxCell id="dCmI68aYTpl_BpPTmrTh-87" value="edad" style="rounded=0;whiteSpace=wrap;html=1;align=center;verticalAlign=middle;" vertex="1" parent="dCmI68aYTpl_BpPTmrTh-347">
          <mxGeometry x="25.799999999999997" y="114.28571428571429" width="189.2" height="28.571428571428573" as="geometry" />
        </mxCell>
        <mxCell id="dCmI68aYTpl_BpPTmrTh-88" value="" style="rounded=0;whiteSpace=wrap;html=1;" vertex="1" parent="dCmI68aYTpl_BpPTmrTh-347">
          <mxGeometry y="114.28571428571429" width="25.799999999999997" height="28.571428571428573" as="geometry" />
        </mxCell>
        <mxCell id="dCmI68aYTpl_BpPTmrTh-89" value="N" style="rounded=0;whiteSpace=wrap;html=1;" vertex="1" parent="dCmI68aYTpl_BpPTmrTh-347">
          <mxGeometry x="189.2" y="114.28571428571429" width="25.799999999999997" height="28.571428571428573" as="geometry" />
        </mxCell>
        <mxCell id="dCmI68aYTpl_BpPTmrTh-336" value="nombre" style="rounded=0;whiteSpace=wrap;html=1;align=center;verticalAlign=middle;" vertex="1" parent="dCmI68aYTpl_BpPTmrTh-347">
          <mxGeometry x="25.799999999999997" y="142.85714285714286" width="189.2" height="28.571428571428573" as="geometry" />
        </mxCell>
        <mxCell id="dCmI68aYTpl_BpPTmrTh-337" value="" style="rounded=0;whiteSpace=wrap;html=1;" vertex="1" parent="dCmI68aYTpl_BpPTmrTh-347">
          <mxGeometry y="142.85714285714286" width="25.799999999999997" height="28.571428571428573" as="geometry" />
        </mxCell>
        <mxCell id="dCmI68aYTpl_BpPTmrTh-338" value="N" style="rounded=0;whiteSpace=wrap;html=1;" vertex="1" parent="dCmI68aYTpl_BpPTmrTh-347">
          <mxGeometry x="189.2" y="142.85714285714286" width="25.799999999999997" height="28.571428571428573" as="geometry" />
        </mxCell>
        <mxCell id="dCmI68aYTpl_BpPTmrTh-339" value="apellido" style="rounded=0;whiteSpace=wrap;html=1;align=center;verticalAlign=middle;" vertex="1" parent="dCmI68aYTpl_BpPTmrTh-347">
          <mxGeometry x="25.799999999999997" y="171.42857142857144" width="189.2" height="28.571428571428573" as="geometry" />
        </mxCell>
        <mxCell id="dCmI68aYTpl_BpPTmrTh-340" value="" style="rounded=0;whiteSpace=wrap;html=1;" vertex="1" parent="dCmI68aYTpl_BpPTmrTh-347">
          <mxGeometry y="171.42857142857144" width="25.799999999999997" height="28.571428571428573" as="geometry" />
        </mxCell>
        <mxCell id="dCmI68aYTpl_BpPTmrTh-341" value="N" style="rounded=0;whiteSpace=wrap;html=1;" vertex="1" parent="dCmI68aYTpl_BpPTmrTh-347">
          <mxGeometry x="189.2" y="171.42857142857144" width="25.799999999999997" height="28.571428571428573" as="geometry" />
        </mxCell>
        <mxCell id="dCmI68aYTpl_BpPTmrTh-348" value="" style="group" vertex="1" connectable="0" parent="1">
          <mxGeometry x="591.5" y="520" width="228" height="210" as="geometry" />
        </mxCell>
        <mxCell id="dCmI68aYTpl_BpPTmrTh-349" value="Productos" style="shape=table;startSize=30;container=1;collapsible=1;childLayout=tableLayout;fixedRows=1;rowLines=0;fontStyle=1;align=center;resizeLast=1;" vertex="1" parent="dCmI68aYTpl_BpPTmrTh-348">
          <mxGeometry width="227.5449101796407" height="135" as="geometry" />
        </mxCell>
        <mxCell id="dCmI68aYTpl_BpPTmrTh-350" value="" style="shape=partialRectangle;collapsible=0;dropTarget=0;pointerEvents=0;fillColor=none;points=[[0,0.5],[1,0.5]];portConstraint=eastwest;top=0;left=0;right=0;bottom=1;" vertex="1" parent="dCmI68aYTpl_BpPTmrTh-349">
          <mxGeometry y="30" width="227.5449101796407" height="30" as="geometry" />
        </mxCell>
        <mxCell id="dCmI68aYTpl_BpPTmrTh-351" value="PK" style="shape=partialRectangle;overflow=hidden;connectable=0;fillColor=none;top=0;left=0;bottom=0;right=0;fontStyle=1;" vertex="1" parent="dCmI68aYTpl_BpPTmrTh-350">
          <mxGeometry width="30" height="30" as="geometry">
            <mxRectangle width="30" height="30" as="alternateBounds" />
          </mxGeometry>
        </mxCell>
        <mxCell id="dCmI68aYTpl_BpPTmrTh-352" value="P_ID" style="shape=partialRectangle;overflow=hidden;connectable=0;fillColor=none;top=0;left=0;bottom=0;right=0;align=center;spacingLeft=6;fontStyle=5;" vertex="1" parent="dCmI68aYTpl_BpPTmrTh-350">
          <mxGeometry x="30" width="197.5449101796407" height="30" as="geometry">
            <mxRectangle width="197.5449101796407" height="30" as="alternateBounds" />
          </mxGeometry>
        </mxCell>
        <mxCell id="dCmI68aYTpl_BpPTmrTh-353" value="" style="shape=partialRectangle;collapsible=0;dropTarget=0;pointerEvents=0;fillColor=none;points=[[0,0.5],[1,0.5]];portConstraint=eastwest;top=0;left=0;right=0;bottom=0;" vertex="1" parent="dCmI68aYTpl_BpPTmrTh-349">
          <mxGeometry y="60" width="227.5449101796407" height="30" as="geometry" />
        </mxCell>
        <mxCell id="dCmI68aYTpl_BpPTmrTh-354" value="" style="shape=partialRectangle;overflow=hidden;connectable=0;fillColor=none;top=0;left=0;bottom=0;right=0;" vertex="1" parent="dCmI68aYTpl_BpPTmrTh-353">
          <mxGeometry width="30" height="30" as="geometry">
            <mxRectangle width="30" height="30" as="alternateBounds" />
          </mxGeometry>
        </mxCell>
        <mxCell id="dCmI68aYTpl_BpPTmrTh-355" value="marca" style="shape=partialRectangle;overflow=hidden;connectable=0;fillColor=none;top=0;left=0;bottom=0;right=0;align=center;spacingLeft=6;" vertex="1" parent="dCmI68aYTpl_BpPTmrTh-353">
          <mxGeometry x="30" width="197.5449101796407" height="30" as="geometry">
            <mxRectangle width="197.5449101796407" height="30" as="alternateBounds" />
          </mxGeometry>
        </mxCell>
        <mxCell id="dCmI68aYTpl_BpPTmrTh-356" value="modelo" style="rounded=0;whiteSpace=wrap;html=1;align=center;verticalAlign=middle;" vertex="1" parent="dCmI68aYTpl_BpPTmrTh-348">
          <mxGeometry x="27.305389221556883" y="90" width="200.23952095808383" height="30.000000000000004" as="geometry" />
        </mxCell>
        <mxCell id="dCmI68aYTpl_BpPTmrTh-357" value="" style="rounded=0;whiteSpace=wrap;html=1;" vertex="1" parent="dCmI68aYTpl_BpPTmrTh-348">
          <mxGeometry y="90" width="27.305389221556883" height="30.000000000000004" as="geometry" />
        </mxCell>
        <mxCell id="dCmI68aYTpl_BpPTmrTh-358" value="N" style="rounded=0;whiteSpace=wrap;html=1;" vertex="1" parent="dCmI68aYTpl_BpPTmrTh-348">
          <mxGeometry x="200.23952095808383" y="30.000000000000004" width="27.305389221556883" height="30.000000000000004" as="geometry" />
        </mxCell>
        <mxCell id="dCmI68aYTpl_BpPTmrTh-359" value="N" style="rounded=0;whiteSpace=wrap;html=1;" vertex="1" parent="dCmI68aYTpl_BpPTmrTh-348">
          <mxGeometry x="200.23952095808383" y="60.00000000000001" width="27.305389221556883" height="30.000000000000004" as="geometry" />
        </mxCell>
        <mxCell id="dCmI68aYTpl_BpPTmrTh-360" value="N" style="rounded=0;whiteSpace=wrap;html=1;" vertex="1" parent="dCmI68aYTpl_BpPTmrTh-348">
          <mxGeometry x="200.23952095808383" y="90" width="27.305389221556883" height="30.000000000000004" as="geometry" />
        </mxCell>
        <mxCell id="dCmI68aYTpl_BpPTmrTh-361" value="imagen" style="rounded=0;whiteSpace=wrap;html=1;align=center;verticalAlign=middle;" vertex="1" parent="dCmI68aYTpl_BpPTmrTh-348">
          <mxGeometry x="27.305389221556883" y="120.00000000000001" width="200.23952095808383" height="30.000000000000004" as="geometry" />
        </mxCell>
        <mxCell id="dCmI68aYTpl_BpPTmrTh-362" value="" style="rounded=0;whiteSpace=wrap;html=1;" vertex="1" parent="dCmI68aYTpl_BpPTmrTh-348">
          <mxGeometry y="120.00000000000001" width="27.305389221556883" height="30.000000000000004" as="geometry" />
        </mxCell>
        <mxCell id="dCmI68aYTpl_BpPTmrTh-363" value="N" style="rounded=0;whiteSpace=wrap;html=1;" vertex="1" parent="dCmI68aYTpl_BpPTmrTh-348">
          <mxGeometry x="200.23952095808383" y="120.00000000000001" width="27.305389221556883" height="30.000000000000004" as="geometry" />
        </mxCell>
        <mxCell id="dCmI68aYTpl_BpPTmrTh-364" value="precio" style="rounded=0;whiteSpace=wrap;html=1;align=center;verticalAlign=middle;" vertex="1" parent="dCmI68aYTpl_BpPTmrTh-348">
          <mxGeometry x="27.305389221556883" y="150" width="200.23952095808383" height="30.000000000000004" as="geometry" />
        </mxCell>
        <mxCell id="dCmI68aYTpl_BpPTmrTh-365" value="" style="rounded=0;whiteSpace=wrap;html=1;" vertex="1" parent="dCmI68aYTpl_BpPTmrTh-348">
          <mxGeometry y="150" width="27.305389221556883" height="30.000000000000004" as="geometry" />
        </mxCell>
        <mxCell id="dCmI68aYTpl_BpPTmrTh-366" value="N" style="rounded=0;whiteSpace=wrap;html=1;" vertex="1" parent="dCmI68aYTpl_BpPTmrTh-348">
          <mxGeometry x="200.23952095808383" y="150" width="27.305389221556883" height="30.000000000000004" as="geometry" />
        </mxCell>
        <mxCell id="dCmI68aYTpl_BpPTmrTh-367" value="ficha_Tec" style="rounded=0;whiteSpace=wrap;html=1;align=center;verticalAlign=middle;" vertex="1" parent="dCmI68aYTpl_BpPTmrTh-348">
          <mxGeometry x="27.760479041916163" y="180" width="200.23952095808383" height="30.000000000000004" as="geometry" />
        </mxCell>
        <mxCell id="dCmI68aYTpl_BpPTmrTh-368" value="" style="rounded=0;whiteSpace=wrap;html=1;" vertex="1" parent="dCmI68aYTpl_BpPTmrTh-348">
          <mxGeometry x="0.4550898203592814" y="180" width="27.305389221556883" height="30.000000000000004" as="geometry" />
        </mxCell>
        <mxCell id="dCmI68aYTpl_BpPTmrTh-369" value="N" style="rounded=0;whiteSpace=wrap;html=1;" vertex="1" parent="dCmI68aYTpl_BpPTmrTh-348">
          <mxGeometry x="200.6946107784431" y="180" width="27.305389221556883" height="30.000000000000004" as="geometry" />
        </mxCell>
        <mxCell id="dCmI68aYTpl_BpPTmrTh-371" value="descripcion" style="rounded=0;whiteSpace=wrap;html=1;align=center;verticalAlign=middle;" vertex="1" parent="1">
          <mxGeometry x="618.8004790419161" y="730" width="200.23952095808383" height="30.000000000000004" as="geometry" />
        </mxCell>
        <mxCell id="dCmI68aYTpl_BpPTmrTh-372" value="" style="rounded=0;whiteSpace=wrap;html=1;" vertex="1" parent="1">
          <mxGeometry x="591.4950898203592" y="730" width="27.305389221556883" height="30.000000000000004" as="geometry" />
        </mxCell>
        <mxCell id="dCmI68aYTpl_BpPTmrTh-373" value="N" style="rounded=0;whiteSpace=wrap;html=1;" vertex="1" parent="1">
          <mxGeometry x="791.7346107784431" y="730" width="27.305389221556883" height="30.000000000000004" as="geometry" />
        </mxCell>
        <mxCell id="dCmI68aYTpl_BpPTmrTh-374" value="" style="group" vertex="1" connectable="0" parent="1">
          <mxGeometry x="20" y="750" width="250" height="90" as="geometry" />
        </mxCell>
        <mxCell id="dCmI68aYTpl_BpPTmrTh-175" value="Cliente_cel" style="shape=table;startSize=30;container=1;collapsible=1;childLayout=tableLayout;fixedRows=1;rowLines=0;fontStyle=1;align=center;resizeLast=1;" vertex="1" parent="dCmI68aYTpl_BpPTmrTh-374">
          <mxGeometry width="250" height="90" as="geometry" />
        </mxCell>
        <mxCell id="dCmI68aYTpl_BpPTmrTh-176" value="" style="shape=partialRectangle;collapsible=0;dropTarget=0;pointerEvents=0;fillColor=none;points=[[0,0.5],[1,0.5]];portConstraint=eastwest;top=0;left=0;right=0;bottom=1;" vertex="1" parent="dCmI68aYTpl_BpPTmrTh-175">
          <mxGeometry y="30" width="250" height="30" as="geometry" />
        </mxCell>
        <mxCell id="dCmI68aYTpl_BpPTmrTh-177" value="FK_PK" style="shape=partialRectangle;overflow=hidden;connectable=0;fillColor=none;top=0;left=0;bottom=0;right=0;fontStyle=1;fontSize=8;" vertex="1" parent="dCmI68aYTpl_BpPTmrTh-176">
          <mxGeometry width="30" height="30" as="geometry">
            <mxRectangle width="30" height="30" as="alternateBounds" />
          </mxGeometry>
        </mxCell>
        <mxCell id="dCmI68aYTpl_BpPTmrTh-178" value="C_CIP" style="shape=partialRectangle;overflow=hidden;connectable=0;fillColor=none;top=0;left=0;bottom=0;right=0;align=center;spacingLeft=6;fontStyle=5;" vertex="1" parent="dCmI68aYTpl_BpPTmrTh-176">
          <mxGeometry x="30" width="220" height="30" as="geometry">
            <mxRectangle width="220" height="30" as="alternateBounds" />
          </mxGeometry>
        </mxCell>
        <mxCell id="dCmI68aYTpl_BpPTmrTh-179" value="" style="shape=partialRectangle;collapsible=0;dropTarget=0;pointerEvents=0;fillColor=none;points=[[0,0.5],[1,0.5]];portConstraint=eastwest;top=0;left=0;right=0;bottom=0;" vertex="1" parent="dCmI68aYTpl_BpPTmrTh-175">
          <mxGeometry y="60" width="250" height="30" as="geometry" />
        </mxCell>
        <mxCell id="dCmI68aYTpl_BpPTmrTh-180" value="PK" style="shape=partialRectangle;overflow=hidden;connectable=0;fillColor=none;top=0;left=0;bottom=0;right=0;" vertex="1" parent="dCmI68aYTpl_BpPTmrTh-179">
          <mxGeometry width="30" height="30" as="geometry">
            <mxRectangle width="30" height="30" as="alternateBounds" />
          </mxGeometry>
        </mxCell>
        <mxCell id="dCmI68aYTpl_BpPTmrTh-181" value="celular" style="shape=partialRectangle;overflow=hidden;connectable=0;fillColor=none;top=0;left=0;bottom=0;right=0;align=center;spacingLeft=6;fontStyle=4" vertex="1" parent="dCmI68aYTpl_BpPTmrTh-179">
          <mxGeometry x="30" width="220" height="30" as="geometry">
            <mxRectangle width="220" height="30" as="alternateBounds" />
          </mxGeometry>
        </mxCell>
        <mxCell id="dCmI68aYTpl_BpPTmrTh-184" value="N" style="rounded=0;whiteSpace=wrap;html=1;" vertex="1" parent="dCmI68aYTpl_BpPTmrTh-374">
          <mxGeometry x="220" y="30" width="30" height="30" as="geometry" />
        </mxCell>
        <mxCell id="dCmI68aYTpl_BpPTmrTh-185" value="N" style="rounded=0;whiteSpace=wrap;html=1;" vertex="1" parent="dCmI68aYTpl_BpPTmrTh-374">
          <mxGeometry x="220" y="60" width="30" height="30" as="geometry" />
        </mxCell>
        <mxCell id="dCmI68aYTpl_BpPTmrTh-376" style="edgeStyle=orthogonalEdgeStyle;rounded=0;orthogonalLoop=1;jettySize=auto;html=1;endArrow=none;endFill=0;" edge="1" parent="1" source="dCmI68aYTpl_BpPTmrTh-375" target="dCmI68aYTpl_BpPTmrTh-309">
          <mxGeometry relative="1" as="geometry" />
        </mxCell>
        <mxCell id="dCmI68aYTpl_BpPTmrTh-375" value="id_suc" style="ellipse;whiteSpace=wrap;html=1;" vertex="1" parent="1">
          <mxGeometry x="160" y="380" width="85" height="30" as="geometry" />
        </mxCell>
        <mxCell id="dCmI68aYTpl_BpPTmrTh-379" value="D_CIP" style="rounded=0;whiteSpace=wrap;html=1;align=center;verticalAlign=middle;" vertex="1" parent="1">
          <mxGeometry x="45.8" y="689.9985714285715" width="189.2" height="28.571428571428573" as="geometry" />
        </mxCell>
        <mxCell id="dCmI68aYTpl_BpPTmrTh-380" value="FK" style="rounded=0;whiteSpace=wrap;html=1;" vertex="1" parent="1">
          <mxGeometry x="20" y="689.9985714285715" width="25.799999999999997" height="28.571428571428573" as="geometry" />
        </mxCell>
        <mxCell id="dCmI68aYTpl_BpPTmrTh-381" value="N" style="rounded=0;whiteSpace=wrap;html=1;" vertex="1" parent="1">
          <mxGeometry x="209.2" y="689.9985714285715" width="25.799999999999997" height="28.571428571428573" as="geometry" />
        </mxCell>
        <mxCell id="dCmI68aYTpl_BpPTmrTh-382" value="&lt;u&gt;V_CIP&lt;/u&gt;" style="rounded=0;whiteSpace=wrap;html=1;align=center;verticalAlign=middle;" vertex="1" parent="1">
          <mxGeometry x="40" y="1030" width="220" height="30" as="geometry" />
        </mxCell>
        <mxCell id="dCmI68aYTpl_BpPTmrTh-383" value="fk" style="rounded=0;whiteSpace=wrap;html=1;" vertex="1" parent="1">
          <mxGeometry x="10" y="1030" width="30" height="30" as="geometry" />
        </mxCell>
        <mxCell id="dCmI68aYTpl_BpPTmrTh-384" value="N" style="rounded=0;whiteSpace=wrap;html=1;" vertex="1" parent="1">
          <mxGeometry x="230" y="1030" width="30" height="30" as="geometry" />
        </mxCell>
        <mxCell id="dCmI68aYTpl_BpPTmrTh-386" value="Venta" style="shape=table;startSize=30;container=1;collapsible=1;childLayout=tableLayout;fixedRows=1;rowLines=0;fontStyle=1;align=center;resizeLast=1;" vertex="1" parent="1">
          <mxGeometry x="310" y="920" width="250" height="90" as="geometry" />
        </mxCell>
        <mxCell id="dCmI68aYTpl_BpPTmrTh-387" value="" style="shape=partialRectangle;collapsible=0;dropTarget=0;pointerEvents=0;fillColor=none;points=[[0,0.5],[1,0.5]];portConstraint=eastwest;top=0;left=0;right=0;bottom=1;" vertex="1" parent="dCmI68aYTpl_BpPTmrTh-386">
          <mxGeometry y="30" width="250" height="30" as="geometry" />
        </mxCell>
        <mxCell id="dCmI68aYTpl_BpPTmrTh-388" value="fk" style="shape=partialRectangle;overflow=hidden;connectable=0;fillColor=none;top=0;left=0;bottom=0;right=0;fontStyle=1;" vertex="1" parent="dCmI68aYTpl_BpPTmrTh-387">
          <mxGeometry width="80" height="30" as="geometry">
            <mxRectangle width="80" height="30" as="alternateBounds" />
          </mxGeometry>
        </mxCell>
        <mxCell id="dCmI68aYTpl_BpPTmrTh-389" value="P_ID" style="shape=partialRectangle;overflow=hidden;connectable=0;fillColor=none;top=0;left=0;bottom=0;right=0;align=center;spacingLeft=6;fontStyle=5;" vertex="1" parent="dCmI68aYTpl_BpPTmrTh-387">
          <mxGeometry x="80" width="170" height="30" as="geometry">
            <mxRectangle width="170" height="30" as="alternateBounds" />
          </mxGeometry>
        </mxCell>
        <mxCell id="dCmI68aYTpl_BpPTmrTh-390" value="" style="shape=partialRectangle;collapsible=0;dropTarget=0;pointerEvents=0;fillColor=none;points=[[0,0.5],[1,0.5]];portConstraint=eastwest;top=0;left=0;right=0;bottom=0;" vertex="1" parent="dCmI68aYTpl_BpPTmrTh-386">
          <mxGeometry y="60" width="250" height="30" as="geometry" />
        </mxCell>
        <mxCell id="dCmI68aYTpl_BpPTmrTh-391" value="pk" style="shape=partialRectangle;overflow=hidden;connectable=0;fillColor=none;top=0;left=0;bottom=0;right=0;" vertex="1" parent="dCmI68aYTpl_BpPTmrTh-390">
          <mxGeometry width="80" height="30" as="geometry">
            <mxRectangle width="80" height="30" as="alternateBounds" />
          </mxGeometry>
        </mxCell>
        <mxCell id="dCmI68aYTpl_BpPTmrTh-392" value="No_factura" style="shape=partialRectangle;overflow=hidden;connectable=0;fillColor=none;top=0;left=0;bottom=0;right=0;align=center;spacingLeft=6;fontStyle=4" vertex="1" parent="dCmI68aYTpl_BpPTmrTh-390">
          <mxGeometry x="80" width="170" height="30" as="geometry">
            <mxRectangle width="170" height="30" as="alternateBounds" />
          </mxGeometry>
        </mxCell>
        <mxCell id="dCmI68aYTpl_BpPTmrTh-393" value="N" style="rounded=0;whiteSpace=wrap;html=1;" vertex="1" parent="1">
          <mxGeometry x="530" y="950" width="30" height="30" as="geometry" />
        </mxCell>
        <mxCell id="dCmI68aYTpl_BpPTmrTh-394" value="N" style="rounded=0;whiteSpace=wrap;html=1;" vertex="1" parent="1">
          <mxGeometry x="530" y="980" width="30" height="30" as="geometry" />
        </mxCell>
        <mxCell id="dCmI68aYTpl_BpPTmrTh-408" value="V_CIP" style="rounded=0;whiteSpace=wrap;html=1;align=center;verticalAlign=middle;" vertex="1" parent="1">
          <mxGeometry x="337.3004790419161" y="1010" width="200.23952095808383" height="30.000000000000004" as="geometry" />
        </mxCell>
        <mxCell id="dCmI68aYTpl_BpPTmrTh-409" value="fk&amp;nbsp;" style="rounded=0;whiteSpace=wrap;html=1;" vertex="1" parent="1">
          <mxGeometry x="310" y="1010" width="80" height="30" as="geometry" />
        </mxCell>
        <mxCell id="dCmI68aYTpl_BpPTmrTh-410" value="N" style="rounded=0;whiteSpace=wrap;html=1;" vertex="1" parent="1">
          <mxGeometry x="530" y="1010" width="30" height="30" as="geometry" />
        </mxCell>
      </root>
    </mxGraphModel>
  </diagram>
</mxfile>
